<mxfile host="app.diagrams.net" modified="2020-12-08T21:01:16.754Z" agent="5.0 (Macintosh; Intel Mac OS X 10_14_6) AppleWebKit/537.36 (KHTML, like Gecko) Chrome/86.0.4240.183 Safari/537.36" etag="I6WIHgNHvNL-_acfkjnX" version="13.11.0" type="github">
  <diagram name="Page-1" id="f1b7ffb7-ca1e-a977-7cf5-a751b3c06c05">
    <mxGraphModel dx="1386" dy="771" grid="1" gridSize="10" guides="1" tooltips="1" connect="1" arrows="1" fold="1" page="1" pageScale="1" pageWidth="826" pageHeight="1169" background="#ffffff" math="0" shadow="0">
      <root>
        <mxCell id="0" />
        <mxCell id="1" parent="0" />
        <mxCell id="13" value="" style="verticalLabelPosition=bottom;verticalAlign=top;strokeWidth=1;shape=mxgraph.mockup.graphics.iconGrid;strokeColor=#CCCCCC;gridSize=1,1;" parent="1" vertex="1">
          <mxGeometry x="20" y="120" width="570" height="480" as="geometry" />
        </mxCell>
        <mxCell id="2" value="Xilas Portfolio" style="text;spacingTop=-5;fontSize=18;fontStyle=0" parent="1" vertex="1">
          <mxGeometry x="70" y="30" width="230" height="20" as="geometry" />
        </mxCell>
        <mxCell id="3" value="" style="line;strokeWidth=1" parent="1" vertex="1">
          <mxGeometry x="20" y="60" width="780" height="10" as="geometry" />
        </mxCell>
        <mxCell id="4" value="" style="line;strokeWidth=1" parent="1" vertex="1">
          <mxGeometry x="20" y="90" width="780" height="10" as="geometry" />
        </mxCell>
        <mxCell id="5" value="Home" style="text;spacingTop=-5;" parent="1" vertex="1">
          <mxGeometry x="270" y="70.00000000000009" width="30" height="20" as="geometry" />
        </mxCell>
        <mxCell id="6" value="About" style="text;spacingTop=-5;" parent="1" vertex="1">
          <mxGeometry x="349.99999999999994" y="70.00000000000016" width="30" height="20" as="geometry" />
        </mxCell>
        <mxCell id="8" value="Home" style="text;spacingTop=-5;" parent="1" vertex="1">
          <mxGeometry x="20" y="120" width="30" height="20" as="geometry" />
        </mxCell>
        <mxCell id="20" value="" style="verticalLabelPosition=bottom;verticalAlign=top;strokeWidth=1;shape=mxgraph.mockup.graphics.iconGrid;strokeColor=#CCCCCC;gridSize=1,1;" parent="1" vertex="1">
          <mxGeometry x="20" y="15" width="40" height="40" as="geometry" />
        </mxCell>
        <mxCell id="21" value="Pic of me" style="text;spacingTop=-5;align=center" parent="1" vertex="1">
          <mxGeometry x="20" y="20" width="40" height="40" as="geometry" />
        </mxCell>
        <mxCell id="22" value="Projects" style="text;spacingTop=-5;" parent="1" vertex="1">
          <mxGeometry x="430" y="70.00000000000026" width="30" height="20" as="geometry" />
        </mxCell>
        <mxCell id="27" value="" style="verticalLabelPosition=bottom;verticalAlign=top;strokeWidth=1;shape=mxgraph.mockup.graphics.iconGrid;strokeColor=#CCCCCC;gridSize=1,1;" parent="1" vertex="1">
          <mxGeometry x="20" y="620" width="570" height="480" as="geometry" />
        </mxCell>
        <mxCell id="28" value="About" style="text;spacingTop=-5;" parent="1" vertex="1">
          <mxGeometry x="160" y="650" width="310" height="60" as="geometry" />
        </mxCell>
        <mxCell id="32" value="" style="verticalLabelPosition=bottom;verticalAlign=top;strokeWidth=1;shape=mxgraph.mockup.graphics.iconGrid;strokeColor=#CCCCCC;gridSize=1,1;" parent="1" vertex="1">
          <mxGeometry x="20" y="1120" width="570" height="480" as="geometry" />
        </mxCell>
        <mxCell id="33" value="Projects" style="text;spacingTop=-5;" parent="1" vertex="1">
          <mxGeometry x="20" y="1120" width="30" height="20" as="geometry" />
        </mxCell>
        <mxCell id="34" value="Here are the projects I worked on during my course of study. etc" style="text;spacingTop=-5;whiteSpace=wrap;align=left" parent="1" vertex="1">
          <mxGeometry x="50" y="1180" width="530" height="250" as="geometry" />
        </mxCell>
        <mxCell id="37" value="" style="verticalLabelPosition=bottom;verticalAlign=top;strokeWidth=1;shape=mxgraph.mockup.misc.rating;strokeColor=#999999;fillColor=#ffff00;emptyFillColor=#ffffff;grade=4;ratingScale=5;ratingStyle=star;" parent="1" vertex="1">
          <mxGeometry x="510.00000000000006" y="585.0000000000002" width="77.5" height="10" as="geometry" />
        </mxCell>
        <mxCell id="41" value="" style="verticalLabelPosition=bottom;verticalAlign=top;strokeWidth=1;shape=mxgraph.mockup.misc.rating;strokeColor=#999999;fillColor=#ffff00;emptyFillColor=#ffffff;grade=4;ratingScale=5;ratingStyle=star;" parent="1" vertex="1">
          <mxGeometry x="509.99999999999994" y="1085" width="77.5" height="10" as="geometry" />
        </mxCell>
        <mxCell id="43" value="" style="verticalLabelPosition=bottom;verticalAlign=top;strokeWidth=1;shape=mxgraph.mockup.misc.rating;strokeColor=#999999;fillColor=#ffff00;emptyFillColor=#ffffff;grade=4;ratingScale=5;ratingStyle=star;" parent="1" vertex="1">
          <mxGeometry x="510.0000000000001" y="1584.9999999999998" width="77.5" height="10" as="geometry" />
        </mxCell>
        <mxCell id="60" value="You can contact me at linkedin, email etc" style="text;spacingTop=-5;whiteSpace=wrap;align=left" parent="1" vertex="1">
          <mxGeometry x="610" y="1850" width="190" height="40" as="geometry" />
        </mxCell>
        <mxCell id="3doJlkX2asJxAWV_DF9B-62" style="edgeStyle=orthogonalEdgeStyle;rounded=0;orthogonalLoop=1;jettySize=auto;html=1;exitX=1;exitY=0.5;exitDx=0;exitDy=0;" edge="1" parent="1" source="5" target="5">
          <mxGeometry relative="1" as="geometry" />
        </mxCell>
        <mxCell id="3doJlkX2asJxAWV_DF9B-63" value="Contact Me" style="text;spacingTop=-5;" vertex="1" parent="1">
          <mxGeometry x="520" y="70.00000000000009" width="30" height="20" as="geometry" />
        </mxCell>
        <mxCell id="3doJlkX2asJxAWV_DF9B-64" value="Welcome to my portfolio, here you will find etc....&#xa;" style="text;spacingTop=-5;" vertex="1" parent="1">
          <mxGeometry x="110" y="190" width="300" height="140" as="geometry" />
        </mxCell>
        <mxCell id="3doJlkX2asJxAWV_DF9B-66" value="Home" style="text;spacingTop=-5;" vertex="1" parent="1">
          <mxGeometry x="40" y="140" width="30" height="20" as="geometry" />
        </mxCell>
        <mxCell id="3doJlkX2asJxAWV_DF9B-67" value="i am a full-stack web dev trained at GA etc" style="text;spacingTop=-5;" vertex="1" parent="1">
          <mxGeometry x="125" y="810" width="310" height="60" as="geometry" />
        </mxCell>
        <mxCell id="3doJlkX2asJxAWV_DF9B-68" value="" style="verticalLabelPosition=bottom;verticalAlign=top;strokeWidth=1;shape=mxgraph.mockup.graphics.iconGrid;strokeColor=#CCCCCC;gridSize=1,1;" vertex="1" parent="1">
          <mxGeometry x="20" y="1640" width="570" height="480" as="geometry" />
        </mxCell>
        <mxCell id="3doJlkX2asJxAWV_DF9B-70" value="Contact me" style="text;spacingTop=-5;" vertex="1" parent="1">
          <mxGeometry x="80" y="1670" width="30" height="20" as="geometry" />
        </mxCell>
        <mxCell id="3doJlkX2asJxAWV_DF9B-71" value="" style="endArrow=classic;html=1;" edge="1" parent="1">
          <mxGeometry width="50" height="50" relative="1" as="geometry">
            <mxPoint x="740" y="1900" as="sourcePoint" />
            <mxPoint x="610" y="1980" as="targetPoint" />
            <Array as="points">
              <mxPoint x="660" y="1990" />
            </Array>
          </mxGeometry>
        </mxCell>
      </root>
    </mxGraphModel>
  </diagram>
</mxfile>
